<svg width="171" height="25" viewBox="0 0 171 25" fill="none" xmlns="http://www.w3.org/2000/svg">
<path d="M10.2969 24.4844C9.07812 24.4844 7.9375 24.3333 6.875 24.0312C5.8125 23.7292 4.84375 23.276 3.96875 22.6719C3.09375 22.0677 2.31771 21.3125 1.64062 20.4062C0.973958 19.5 0.427083 18.4479 0 17.25L5.40625 16.9531C5.48958 18.8698 6.03646 20.3333 7.04688 21.3438C8.05729 22.3438 9.48438 22.8438 11.3281 22.8438C12.0469 22.8438 12.7656 22.7708 13.4844 22.625C14.2031 22.4792 14.8438 22.2344 15.4062 21.8906C15.9792 21.5365 16.4427 21.0729 16.7969 20.5C17.1615 19.9271 17.3438 19.2135 17.3438 18.3594C17.3438 17.7656 17.2292 17.2604 17 16.8438C16.7708 16.4167 16.4635 16.0625 16.0781 15.7812C15.7031 15.5 15.2656 15.276 14.7656 15.1094C14.276 14.9323 13.7656 14.7969 13.2344 14.7031C12.7135 14.599 12.1927 14.5208 11.6719 14.4688C11.151 14.4167 10.6719 14.3698 10.2344 14.3281C9.52604 14.276 8.78646 14.1927 8.01562 14.0781C7.24479 13.9635 6.48438 13.8021 5.73438 13.5938C4.99479 13.3854 4.28646 13.1198 3.60938 12.7969C2.93229 12.474 2.33854 12.0677 1.82812 11.5781C1.31771 11.0781 0.911458 10.4896 0.609375 9.8125C0.307292 9.13542 0.15625 8.33854 0.15625 7.42188C0.15625 6.54688 0.302083 5.75521 0.59375 5.04688C0.885417 4.33854 1.28125 3.71354 1.78125 3.17188C2.29167 2.61979 2.875 2.14583 3.53125 1.75C4.19792 1.34375 4.90104 1.01562 5.64062 0.765625C6.39062 0.505208 7.15625 0.3125 7.9375 0.1875C8.71875 0.0625 9.47396 0 10.2031 0C10.9427 0 11.7188 0.046875 12.5312 0.140625C13.3542 0.234375 14.1719 0.390625 14.9844 0.609375C15.7969 0.828125 16.5781 1.11458 17.3281 1.46875C18.0885 1.8125 18.7708 2.23958 19.375 2.75C19.9896 3.26042 20.5 3.85938 20.9062 4.54688C21.3125 5.22396 21.5781 6 21.7031 6.875L16.4844 7.9375C16.5469 7.55208 16.5781 7.15625 16.5781 6.75C16.5781 5.80208 16.3854 5 16 4.34375C15.6146 3.6875 15.1042 3.16146 14.4688 2.76562C13.8333 2.35938 13.1146 2.06771 12.3125 1.89062C11.5104 1.71354 10.6927 1.625 9.85938 1.625C9.11979 1.625 8.38542 1.72396 7.65625 1.92188C6.9375 2.10938 6.28646 2.39583 5.70312 2.78125C5.13021 3.16667 4.66667 3.65104 4.3125 4.23438C3.95833 4.81771 3.78125 5.50521 3.78125 6.29688C3.78125 6.83854 3.92708 7.30729 4.21875 7.70312C4.51042 8.09896 4.89062 8.44271 5.35938 8.73438C5.83854 9.01562 6.375 9.25 6.96875 9.4375C7.5625 9.625 8.15625 9.78125 8.75 9.90625C9.35417 10.0208 9.92708 10.1146 10.4688 10.1875C11.0104 10.25 11.4688 10.2969 11.8438 10.3281C12.5104 10.401 13.2083 10.5052 13.9375 10.6406C14.6667 10.7656 15.3854 10.9427 16.0938 11.1719C16.8021 11.401 17.4792 11.6875 18.125 12.0312C18.7708 12.375 19.3333 12.7917 19.8125 13.2812C20.3021 13.7708 20.6875 14.3438 20.9688 15C21.2604 15.6562 21.4062 16.4062 21.4062 17.25C21.4062 18.1458 21.2292 18.9479 20.875 19.6562C20.5208 20.3542 20.0469 20.974 19.4531 21.5156C18.8698 22.0469 18.1979 22.5052 17.4375 22.8906C16.6771 23.2656 15.8854 23.5677 15.0625 23.7969C14.2396 24.0365 13.4167 24.2083 12.5938 24.3125C11.7708 24.4271 11.0052 24.4844 10.2969 24.4844ZM34.875 23.2031L35.2656 21.5625C34.901 21.8854 34.4948 22.1771 34.0469 22.4375C33.6094 22.6979 33.1562 22.9219 32.6875 23.1094C32.2188 23.2865 31.75 23.4219 31.2812 23.5156C30.8229 23.6198 30.401 23.6719 30.0156 23.6719C29.3385 23.6719 28.6406 23.5729 27.9219 23.375C27.2031 23.1771 26.5521 22.8802 25.9688 22.4844C25.3854 22.0885 24.9062 21.5938 24.5312 21C24.1562 20.4062 23.9688 19.7188 23.9688 18.9375C23.9688 17.9167 24.1458 17.0312 24.5 16.2812C24.8542 15.5312 25.3333 14.9115 25.9375 14.4219C26.5521 13.9323 27.2708 13.5729 28.0938 13.3438C28.9167 13.1042 29.8021 12.9844 30.75 12.9844C31.1979 12.9844 31.6562 13.0208 32.125 13.0938C32.5938 13.1667 33.0521 13.276 33.5 13.4219C33.9479 13.5677 34.375 13.7604 34.7812 14C35.1875 14.2396 35.5521 14.5208 35.875 14.8438C35.8438 14.2812 35.7656 13.6875 35.6406 13.0625C35.526 12.4375 35.3385 11.8698 35.0781 11.3594C34.8281 10.8385 34.4896 10.4115 34.0625 10.0781C33.6354 9.73438 33.0938 9.5625 32.4375 9.5625C31.4792 9.5625 30.6667 9.8125 30 10.3125C29.3438 10.8021 28.8906 11.5156 28.6406 12.4531L24.5781 12.0312C24.8281 11.3854 25.1823 10.8177 25.6406 10.3281C26.099 9.82812 26.6146 9.41146 27.1875 9.07812C27.7708 8.74479 28.3906 8.49479 29.0469 8.32812C29.7031 8.15104 30.3646 8.0625 31.0312 8.0625C32.0521 8.0625 32.9635 8.20833 33.7656 8.5C34.5781 8.79167 35.2917 9.19271 35.9062 9.70312C36.5208 10.2135 37.0417 10.8177 37.4688 11.5156C37.8958 12.2031 38.2448 12.9479 38.5156 13.75C38.7865 14.5417 38.9844 15.375 39.1094 16.25C39.2344 17.1146 39.2969 17.9792 39.2969 18.8438C39.2969 19.6146 39.2552 20.3802 39.1719 21.1406C39.0885 21.8906 38.9688 22.6406 38.8125 23.3906L34.875 23.2031ZM35.7031 18.7812C35.7344 18.5417 35.7552 18.3073 35.7656 18.0781C35.7865 17.849 35.8073 17.6146 35.8281 17.375C35.776 16.8854 35.6042 16.4531 35.3125 16.0781C35.0208 15.6927 34.6667 15.3698 34.25 15.1094C33.8333 14.8385 33.3802 14.6354 32.8906 14.5C32.401 14.3646 31.9219 14.2969 31.4531 14.2969C30.9115 14.2969 30.4062 14.3906 29.9375 14.5781C29.4688 14.7552 29.0625 15.0104 28.7188 15.3438C28.375 15.6771 28.1042 16.0729 27.9062 16.5312C27.7083 16.9896 27.6094 17.4948 27.6094 18.0469C27.6094 18.6094 27.6927 19.125 27.8594 19.5938C28.0365 20.0521 28.2812 20.4531 28.5938 20.7969C28.9062 21.1302 29.2865 21.3906 29.7344 21.5781C30.1927 21.7656 30.7031 21.8594 31.2656 21.8594C31.7656 21.8594 32.2552 21.7865 32.7344 21.6406C33.2135 21.4948 33.651 21.2917 34.0469 21.0312C34.4531 20.7604 34.7969 20.4375 35.0781 20.0625C35.3698 19.6771 35.5781 19.25 35.7031 18.7812ZM57.5938 9.09375C56.3438 11.9062 55.0312 14.6875 53.6562 17.4375C53.1458 18.5 52.6146 19.5469 52.0625 20.5781C51.5104 21.599 50.9115 22.6094 50.2656 23.6094L46.9375 23.7812C46.3125 22.3542 45.6979 20.9427 45.0938 19.5469C44.4896 18.1406 43.901 16.724 43.3281 15.2969C42.8698 14.2344 42.4271 13.1719 42 12.1094C41.5833 11.0365 41.1823 9.95312 40.7969 8.85938L46.4219 8.15625C46.4323 9.25 46.4948 10.4115 46.6094 11.6406C46.724 12.8698 46.8906 14.1042 47.1094 15.3438C47.3385 16.5833 47.6146 17.7969 47.9375 18.9844C48.2708 20.1615 48.651 21.2448 49.0781 22.2344C49.4115 21.6406 49.7344 20.974 50.0469 20.2344C50.3698 19.4948 50.6719 18.7188 50.9531 17.9062C51.2344 17.0938 51.4948 16.2552 51.7344 15.3906C51.974 14.526 52.1875 13.6719 52.375 12.8281C52.5625 11.9844 52.7188 11.1667 52.8438 10.375C52.9688 9.58333 53.0573 8.84375 53.1094 8.15625L57.5938 9.09375ZM75.6406 16.0938C75.6406 17.3542 75.3906 18.474 74.8906 19.4531C74.401 20.4219 73.7448 21.2448 72.9219 21.9219C72.1094 22.5885 71.1667 23.0938 70.0938 23.4375C69.0208 23.7917 67.9062 23.9688 66.75 23.9688C65.6042 23.9688 64.5469 23.7708 63.5781 23.375C62.6198 22.9792 61.7917 22.4323 61.0938 21.7344C60.3958 21.026 59.849 20.1927 59.4531 19.2344C59.0677 18.2656 58.875 17.2083 58.875 16.0625C58.875 14.9375 59.1042 13.8854 59.5625 12.9062C60.0312 11.9271 60.651 11.0729 61.4219 10.3438C62.2031 9.60417 63.099 9.02604 64.1094 8.60938C65.1198 8.18229 66.1771 7.96875 67.2812 7.96875C68.4792 7.96875 69.5885 8.16667 70.6094 8.5625C71.6302 8.95833 72.5104 9.51562 73.25 10.2344C74 10.9531 74.5833 11.8125 75 12.8125C75.4271 13.8021 75.6406 14.8958 75.6406 16.0938ZM71.7031 15.9375C71.7031 15.4688 71.6719 14.9844 71.6094 14.4844C71.5469 13.974 71.4427 13.4792 71.2969 13C71.1615 12.5104 70.9792 12.0521 70.75 11.625C70.5312 11.1875 70.2552 10.8073 69.9219 10.4844C69.5885 10.151 69.1979 9.89062 68.75 9.70312C68.3021 9.50521 67.7917 9.40625 67.2188 9.40625C66.3438 9.40625 65.6198 9.61979 65.0469 10.0469C64.474 10.4635 64.0208 11 63.6875 11.6562C63.3646 12.3021 63.1354 13.0156 63 13.7969C62.875 14.5781 62.8125 15.3229 62.8125 16.0312C62.8125 16.5 62.8385 16.9896 62.8906 17.5C62.9531 18 63.0521 18.4948 63.1875 18.9844C63.3229 19.474 63.5 19.9427 63.7188 20.3906C63.9375 20.8281 64.2083 21.2188 64.5312 21.5625C64.8646 21.8958 65.25 22.1615 65.6875 22.3594C66.1354 22.5573 66.6458 22.6562 67.2188 22.6562C67.8021 22.6562 68.3177 22.5573 68.7656 22.3594C69.2135 22.151 69.599 21.8802 69.9219 21.5469C70.2552 21.2031 70.5365 20.8073 70.7656 20.3594C70.9948 19.901 71.1771 19.4271 71.3125 18.9375C71.4479 18.4375 71.5469 17.9323 71.6094 17.4219C71.6719 16.901 71.7031 16.4062 71.7031 15.9375ZM93.875 8.95312L92.9375 23.4219L90.1875 23.6719L90.0312 20.1562C89.7917 20.7396 89.4948 21.276 89.1406 21.7656C88.7865 22.2552 88.375 22.6771 87.9062 23.0312C87.4479 23.3854 86.9323 23.6615 86.3594 23.8594C85.7865 24.0573 85.1667 24.1562 84.5 24.1562C83.4583 24.1562 82.5365 23.9479 81.7344 23.5312C80.9427 23.125 80.276 22.5573 79.7344 21.8281C79.2031 21.099 78.8021 20.2344 78.5312 19.2344C78.2604 18.224 78.125 17.125 78.125 15.9375C78.125 14.6562 78.2188 13.5417 78.4062 12.5938C78.5938 11.6354 78.8073 10.8281 79.0469 10.1719C79.3177 9.41146 79.6302 8.76042 79.9844 8.21875L84.4531 8.60938C83.9427 9.22396 83.4896 9.95833 83.0938 10.8125C82.75 11.5417 82.4375 12.4479 82.1562 13.5312C81.875 14.6146 81.7344 15.8646 81.7344 17.2812C81.7344 18.1354 81.8333 18.8698 82.0312 19.4844C82.2292 20.099 82.5104 20.6094 82.875 21.0156C83.2396 21.4115 83.6771 21.7031 84.1875 21.8906C84.7083 22.0781 85.2917 22.1719 85.9375 22.1719C86.4896 22.1719 86.9792 22.0208 87.4062 21.7188C87.8333 21.4167 88.2083 21.026 88.5312 20.5469C88.8542 20.0677 89.125 19.526 89.3438 18.9219C89.5729 18.3177 89.7604 17.7188 89.9062 17.125L89.5781 8.70312L93.875 8.95312ZM123.094 13.4375C122.771 13.3958 122.37 13.3594 121.891 13.3281C121.411 13.2969 120.891 13.2708 120.328 13.25C119.776 13.2188 119.198 13.1979 118.594 13.1875C118 13.1771 117.422 13.1667 116.859 13.1562C116.307 13.1458 115.786 13.1406 115.297 13.1406C114.818 13.1302 114.417 13.125 114.094 13.125C113.646 13.125 113.203 13.125 112.766 13.125C112.328 13.125 111.885 13.1354 111.438 13.1562C111.417 14.6042 111.411 16.0365 111.422 17.4531C111.432 18.8698 111.438 20.3073 111.438 21.7656C111.438 22.0156 111.438 22.2656 111.438 22.5156C111.438 22.7552 111.448 23.0052 111.469 23.2656L107.625 23.3281L107.25 0.921875L125.234 1.04688L125.172 5.01562C124.734 4.74479 124.167 4.49479 123.469 4.26562C122.781 4.03646 122.026 3.83333 121.203 3.65625C120.38 3.46875 119.516 3.30729 118.609 3.17188C117.714 3.03646 116.839 2.92188 115.984 2.82812C115.13 2.72396 114.328 2.64062 113.578 2.57812C112.828 2.51562 112.188 2.46875 111.656 2.4375C111.594 3.97917 111.547 5.51562 111.516 7.04688C111.484 8.56771 111.458 10.099 111.438 11.6406H111.5C111.969 11.6406 112.516 11.6354 113.141 11.625C113.776 11.6146 114.448 11.599 115.156 11.5781C115.865 11.5573 116.589 11.5365 117.328 11.5156C118.078 11.4844 118.807 11.4531 119.516 11.4219C120.224 11.3802 120.891 11.3438 121.516 11.3125C122.141 11.2708 122.688 11.224 123.156 11.1719L123.094 13.4375ZM135.047 19C134.224 19 133.406 18.8958 132.594 18.6875C131.792 18.4688 131.062 18.125 130.406 17.6562C130.417 18.0625 130.443 18.4792 130.484 18.9062C130.526 19.3333 130.594 19.75 130.688 20.1562C130.792 20.5521 130.922 20.9271 131.078 21.2812C131.245 21.6354 131.453 21.9479 131.703 22.2188C131.964 22.4792 132.271 22.6875 132.625 22.8438C132.99 23 133.422 23.0781 133.922 23.0781C134.391 23.0781 134.828 22.9948 135.234 22.8281C135.641 22.651 135.995 22.4167 136.297 22.125C136.609 21.8333 136.865 21.4896 137.062 21.0938C137.26 20.6979 137.396 20.2708 137.469 19.8125L141.312 20.6719C141.01 21.3177 140.583 21.8646 140.031 22.3125C139.49 22.7604 138.885 23.1198 138.219 23.3906C137.552 23.6719 136.854 23.875 136.125 24C135.406 24.125 134.714 24.1875 134.047 24.1875C132.849 24.1875 131.781 24.0104 130.844 23.6562C129.906 23.3021 129.115 22.7917 128.469 22.125C127.833 21.4583 127.344 20.651 127 19.7031C126.667 18.7448 126.5 17.6719 126.5 16.4844C126.5 15.3281 126.698 14.2396 127.094 13.2188C127.49 12.1875 128.042 11.2917 128.75 10.5312C129.458 9.77083 130.307 9.17188 131.297 8.73438C132.297 8.28646 133.396 8.0625 134.594 8.0625C135.469 8.0625 136.339 8.17188 137.203 8.39062C138.068 8.59896 138.844 8.93229 139.531 9.39062C140.219 9.83854 140.771 10.4167 141.188 11.125C141.615 11.8333 141.828 12.6875 141.828 13.6875C141.828 14.6667 141.63 15.4948 141.234 16.1719C140.849 16.8385 140.339 17.3854 139.703 17.8125C139.068 18.2292 138.344 18.5312 137.531 18.7188C136.719 18.9062 135.891 19 135.047 19ZM134.375 9.21875C133.896 9.21875 133.469 9.31771 133.094 9.51562C132.729 9.70312 132.401 9.96354 132.109 10.2969C131.828 10.6302 131.589 11.0104 131.391 11.4375C131.193 11.8646 131.026 12.3125 130.891 12.7812C130.755 13.25 130.651 13.724 130.578 14.2031C130.505 14.6823 130.458 15.1302 130.438 15.5469C130.833 16.224 131.359 16.7812 132.016 17.2188C132.672 17.6458 133.432 17.8594 134.297 17.8594C134.849 17.8594 135.344 17.7344 135.781 17.4844C136.219 17.224 136.589 16.8906 136.891 16.4844C137.193 16.0781 137.422 15.625 137.578 15.125C137.745 14.625 137.828 14.125 137.828 13.625C137.828 13.125 137.755 12.6146 137.609 12.0938C137.464 11.5625 137.245 11.0885 136.953 10.6719C136.672 10.2448 136.312 9.89583 135.875 9.625C135.448 9.35417 134.948 9.21875 134.375 9.21875ZM151.891 23.875C150.995 23.875 150.099 23.7604 149.203 23.5312C148.318 23.3021 147.505 22.9531 146.766 22.4844C146.026 22.0052 145.401 21.4062 144.891 20.6875C144.391 19.9583 144.083 19.099 143.969 18.1094L148.344 18.2344C148.323 18.2969 148.312 18.3646 148.312 18.4375C148.312 18.5 148.312 18.5625 148.312 18.625C148.312 19.2396 148.401 19.7917 148.578 20.2812C148.766 20.7708 149.031 21.1875 149.375 21.5312C149.719 21.8646 150.13 22.1198 150.609 22.2969C151.089 22.474 151.625 22.5625 152.219 22.5625C152.573 22.5625 152.917 22.526 153.25 22.4531C153.594 22.3802 153.896 22.2604 154.156 22.0938C154.427 21.9167 154.646 21.6875 154.812 21.4062C154.979 21.125 155.062 20.7708 155.062 20.3438C155.062 19.8646 154.911 19.4531 154.609 19.1094C154.307 18.7656 153.938 18.4792 153.5 18.25C153.073 18.0104 152.62 17.8177 152.141 17.6719C151.672 17.5156 151.26 17.3958 150.906 17.3125C150.542 17.2188 150.12 17.1146 149.641 17C149.172 16.875 148.688 16.7344 148.188 16.5781C147.688 16.4115 147.198 16.2188 146.719 16C146.24 15.7812 145.812 15.5208 145.438 15.2188C145.062 14.9167 144.76 14.5729 144.531 14.1875C144.302 13.7917 144.188 13.3385 144.188 12.8281C144.188 12.2552 144.297 11.7344 144.516 11.2656C144.734 10.7969 145.026 10.3802 145.391 10.0156C145.766 9.65104 146.193 9.33854 146.672 9.07812C147.161 8.80729 147.667 8.58854 148.188 8.42188C148.708 8.24479 149.234 8.11458 149.766 8.03125C150.297 7.94792 150.797 7.90625 151.266 7.90625C152.057 7.90625 152.859 8 153.672 8.1875C154.495 8.36458 155.24 8.65625 155.906 9.0625C156.583 9.46875 157.146 9.99479 157.594 10.6406C158.052 11.2865 158.318 12.0677 158.391 12.9844L154.141 13.3125V13.1562C154.151 12.5417 154.078 11.9844 153.922 11.4844C153.776 10.9844 153.547 10.5573 153.234 10.2031C152.932 9.84896 152.547 9.57812 152.078 9.39062C151.62 9.19271 151.078 9.09375 150.453 9.09375C150.172 9.09375 149.865 9.13542 149.531 9.21875C149.198 9.30208 148.885 9.43229 148.594 9.60938C148.312 9.77604 148.073 9.98958 147.875 10.25C147.677 10.5104 147.578 10.8177 147.578 11.1719C147.578 11.7135 147.745 12.151 148.078 12.4844C148.422 12.8073 148.839 13.0677 149.328 13.2656C149.818 13.4531 150.328 13.599 150.859 13.7031C151.391 13.7969 151.854 13.8906 152.25 13.9844C152.677 14.0781 153.13 14.1979 153.609 14.3438C154.099 14.4792 154.578 14.651 155.047 14.8594C155.526 15.0573 155.979 15.2969 156.406 15.5781C156.844 15.849 157.229 16.1667 157.562 16.5312C157.896 16.8854 158.161 17.2917 158.359 17.75C158.557 18.1979 158.656 18.7031 158.656 19.2656C158.656 20.1094 158.438 20.8281 158 21.4219C157.562 22.0052 157.005 22.4792 156.328 22.8438C155.661 23.2083 154.932 23.4688 154.141 23.625C153.349 23.7917 152.599 23.875 151.891 23.875ZM166.891 1.59375L166.703 8H170.406V9.3125H166.672L166.25 23.4844L163.375 23.75L163.078 9.3125H159.234V8H163.047L162.953 2.59375L166.891 1.59375Z" fill="white"/>
</svg>
